<?xml version="1.0" encoding="UTF-8" standalone="no"?>
<!-- Created with Inkscape (http://www.inkscape.org/) -->

<svg
   xmlns:dc="http://purl.org/dc/elements/1.1/"
   xmlns:cc="http://creativecommons.org/ns#"
   xmlns:rdf="http://www.w3.org/1999/02/22-rdf-syntax-ns#"
   xmlns:svg="http://www.w3.org/2000/svg"
   xmlns="http://www.w3.org/2000/svg"
   xmlns:sodipodi="http://sodipodi.sourceforge.net/DTD/sodipodi-0.dtd"
   xmlns:inkscape="http://www.inkscape.org/namespaces/inkscape"
   width="297mm"
   height="210mm"
   viewBox="0 0 297 210"
   version="1.1"
   id="svg8"
   inkscape:version="0.92.2 (5c3e80d, 2017-08-06)"
   sodipodi:docname="asorsub.svg">
  <defs
     id="defs2" />
  <sodipodi:namedview
     id="base"
     pagecolor="#ffffff"
     bordercolor="#666666"
     borderopacity="1.0"
     inkscape:pageopacity="0.0"
     inkscape:pageshadow="2"
     inkscape:zoom="0.47608174"
     inkscape:cx="733.16033"
     inkscape:cy="432.12178"
     inkscape:document-units="mm"
     inkscape:current-layer="layer1"
     showgrid="false"
     inkscape:window-width="1366"
     inkscape:window-height="705"
     inkscape:window-x="-8"
     inkscape:window-y="-8"
     inkscape:window-maximized="1" />
  <metadata
     id="metadata5">
    <rdf:RDF>
      <cc:Work
         rdf:about="">
        <dc:format>image/svg+xml</dc:format>
        <dc:type
           rdf:resource="http://purl.org/dc/dcmitype/StillImage" />
        <dc:title></dc:title>
      </cc:Work>
    </rdf:RDF>
  </metadata>
  <g
     inkscape:label="Capa 1"
     inkscape:groupmode="layer"
     id="layer1"
     transform="translate(0,-87)">
    <path
       style="opacity:0.997;fill:#ffcc00;fill-opacity:1;fill-rule:nonzero;stroke:none;stroke-width:4.02519703;stroke-linecap:butt;stroke-linejoin:miter;stroke-miterlimit:4;stroke-dasharray:none;stroke-dashoffset:0;stroke-opacity:1;paint-order:stroke fill markers"
       d=""
       id="path938"
       inkscape:connector-curvature="0"
       transform="matrix(0.26458333,0,0,0.26458333,0,87)" />
    <path
       style="opacity:0.997;fill:#ffcc00;fill-opacity:1;fill-rule:nonzero;stroke:none;stroke-width:4.02519703;stroke-linecap:butt;stroke-linejoin:miter;stroke-miterlimit:4;stroke-dasharray:none;stroke-dashoffset:0;stroke-opacity:1;paint-order:stroke fill markers"
       d=""
       id="path940"
       inkscape:connector-curvature="0"
       transform="matrix(0.26458333,0,0,0.26458333,0,87)" />
    <path
       style="opacity:0.997;fill:#aa4400;fill-opacity:1;fill-rule:nonzero;stroke:none;stroke-width:4.02519703;stroke-linecap:butt;stroke-linejoin:miter;stroke-miterlimit:4;stroke-dasharray:none;stroke-dashoffset:0;stroke-opacity:1;paint-order:stroke fill markers"
       d=""
       id="path972"
       inkscape:connector-curvature="0"
       transform="matrix(0.26458333,0,0,0.26458333,0,87)" />
    <path
       style="opacity:0.997;fill:#ffd42a;fill-opacity:1;fill-rule:nonzero;stroke:none;stroke-width:4.02519703;stroke-linecap:butt;stroke-linejoin:miter;stroke-miterlimit:4;stroke-dasharray:none;stroke-dashoffset:0;stroke-opacity:1;paint-order:stroke fill markers"
       d=""
       id="path998"
       inkscape:connector-curvature="0"
       transform="matrix(0.26458333,0,0,0.26458333,0,87)" />
    <path
       style="opacity:0.997;fill:#ffd42a;fill-opacity:1;fill-rule:nonzero;stroke:none;stroke-width:4.02519703;stroke-linecap:butt;stroke-linejoin:miter;stroke-miterlimit:4;stroke-dasharray:none;stroke-dashoffset:0;stroke-opacity:1;paint-order:stroke fill markers"
       d=""
       id="path1046"
       inkscape:connector-curvature="0"
       transform="matrix(0.26458333,0,0,0.26458333,0,87)" />
    <path
       style="opacity:0.997;fill:#ffd42a;fill-opacity:1;fill-rule:nonzero;stroke:none;stroke-width:4.02519703;stroke-linecap:butt;stroke-linejoin:miter;stroke-miterlimit:4;stroke-dasharray:none;stroke-dashoffset:0;stroke-opacity:1;paint-order:stroke fill markers"
       d=""
       id="path1048"
       inkscape:connector-curvature="0"
       transform="matrix(0.26458333,0,0,0.26458333,0,87)" />
    <path
       style="opacity:0.997;fill:#ffd42a;fill-opacity:1;fill-rule:nonzero;stroke:none;stroke-width:4.02519703;stroke-linecap:butt;stroke-linejoin:miter;stroke-miterlimit:4;stroke-dasharray:none;stroke-dashoffset:0;stroke-opacity:1;paint-order:stroke fill markers"
       d=""
       id="path1058"
       inkscape:connector-curvature="0"
       transform="matrix(0.26458333,0,0,0.26458333,0,87)" />
    <path
       style="opacity:0.997;fill:#cccccc;fill-opacity:1;fill-rule:nonzero;stroke:none;stroke-width:12.47244072;stroke-linecap:butt;stroke-linejoin:miter;stroke-miterlimit:4;stroke-dasharray:none;stroke-dashoffset:0;stroke-opacity:1;paint-order:stroke fill markers"
       d=""
       id="path1104"
       inkscape:connector-curvature="0"
       transform="matrix(0.26458333,0,0,0.26458333,0,87)" />
    <path
       style="opacity:0.997;fill:#a05a2c;fill-opacity:1;fill-rule:nonzero;stroke:none;stroke-width:12.47244072;stroke-linecap:butt;stroke-linejoin:miter;stroke-miterlimit:4;stroke-dasharray:none;stroke-dashoffset:0;stroke-opacity:1;paint-order:stroke fill markers"
       d=""
       id="path1130"
       inkscape:connector-curvature="0"
       transform="matrix(0.26458333,0,0,0.26458333,0,87)" />
    <path
       style="opacity:0.997;fill:#a05a2c;fill-opacity:1;fill-rule:nonzero;stroke:none;stroke-width:12.47244072;stroke-linecap:butt;stroke-linejoin:miter;stroke-miterlimit:4;stroke-dasharray:none;stroke-dashoffset:0;stroke-opacity:1;paint-order:stroke fill markers"
       d=""
       id="path1260"
       inkscape:connector-curvature="0"
       transform="matrix(0.26458333,0,0,0.26458333,0,87)" />
    <path
       style="opacity:0.997;fill:#ffd42a;fill-opacity:1;fill-rule:nonzero;stroke:none;stroke-width:12.47244072;stroke-linecap:butt;stroke-linejoin:miter;stroke-miterlimit:4;stroke-dasharray:none;stroke-dashoffset:0;stroke-opacity:1;paint-order:stroke fill markers"
       d=""
       id="path1622"
       inkscape:connector-curvature="0"
       transform="matrix(0.26458333,0,0,0.26458333,0,87)" />
    <path
       style="opacity:0.997;fill:#c87137;fill-opacity:1;fill-rule:nonzero;stroke:none;stroke-width:12.47244072;stroke-linecap:butt;stroke-linejoin:miter;stroke-miterlimit:4;stroke-dasharray:none;stroke-dashoffset:0;stroke-opacity:1;paint-order:stroke fill markers"
       d=""
       id="path1626"
       inkscape:connector-curvature="0"
       transform="matrix(0.26458333,0,0,0.26458333,0,87)" />
    <path
       style="opacity:1;fill:#ff6600;fill-opacity:1;fill-rule:nonzero;stroke:none;stroke-width:0.66499996;stroke-linecap:butt;stroke-linejoin:miter;stroke-miterlimit:4;stroke-dasharray:none;stroke-dashoffset:0;stroke-opacity:1;paint-order:stroke fill markers"
       d="m 151.63136,254.14196 c -2.73853,-0.2291 -7.84127,-1.00758 -10.95688,-1.67162 -9.26267,-1.97415 -19.71554,-6.83839 -27.25979,-12.68536 -2.68707,-2.08255 -8.4812,-7.67097 -10.64105,-10.26328 -7.940252,-9.53011 -13.14622,-21.8601 -14.488351,-34.31469 -0.432196,-4.01062 -0.187327,-12.94114 0.454376,-16.57173 3.863864,-21.86074 18.647245,-40.39385 39.349005,-49.3297 5.60367,-2.41882 12.70987,-4.38601 18.77144,-5.19648 4.25612,-0.56906 14.35281,-0.56906 18.60894,0 12.14297,1.62358 24.2978,6.71658 33.92624,14.21543 14.09556,10.97794 23.35733,27.99191 24.66795,45.31519 1.29178,17.0742 -3.90766,33.27396 -14.81836,46.16928 -2.90393,3.43216 -8.82444,8.90389 -12.37492,11.43692 -8.75455,6.24582 -18.85849,10.36867 -29.63493,12.09238 -4.35689,0.69688 -12.10793,1.0961 -15.60367,0.80366 z m 11.00959,-4.58587 c 21.36616,-2.06089 40.48366,-14.64591 50.23773,-33.07141 3.02414,-5.71257 4.9307,-11.18914 6.00266,-17.2425 5.96821,-33.70228 -17.84563,-65.41309 -53.09351,-70.69992 -5.19934,-0.77984 -15.27774,-0.70362 -20.29826,0.15352 -7.47867,1.27682 -14.41604,3.64964 -20.58612,7.04118 -17.42356,9.57728 -28.668779,25.3986 -31.778125,44.70986 -0.403497,2.50598 -0.466801,4.34299 -0.343007,9.95299 0.132765,6.01636 0.248904,7.31964 0.92535,10.38438 1.428624,6.47257 4.450905,14.0243 7.669782,19.16438 5.14338,8.21322 13.92069,16.63292 22.28823,21.38013 11.60544,6.5842 25.53227,9.52404 38.97527,8.22739 z"
       id="path4013"
       inkscape:connector-curvature="0" />
    <path
       style="opacity:1;fill:#ff6600;fill-opacity:1;fill-rule:nonzero;stroke:none;stroke-width:0.66499996;stroke-linecap:butt;stroke-linejoin:miter;stroke-miterlimit:4;stroke-dasharray:none;stroke-dashoffset:0;stroke-opacity:1;paint-order:stroke fill markers"
       d="m 151.04642,275.72991 c -0.96513,-0.0474 -3.46571,-0.28571 -5.55685,-0.52941 -30.08464,-3.50594 -56.465757,-21.12583 -70.057784,-46.7914 -6.297521,-11.89149 -9.41362,-23.6188 -9.835932,-37.01717 -0.654457,-20.76349 6.227948,-40.5997 19.698446,-56.77411 3.056768,-3.67035 10.089683,-10.42303 13.994782,-13.43715 11.248168,-8.68182 23.993508,-14.4908 38.157678,-17.39126 9.81196,-2.00924 21.90334,-2.37939 31.72584,-0.97123 22.33487,3.20198 42.17007,13.84222 56.69007,30.41039 5.16361,5.892 11.06229,15.19121 14.04149,22.13633 3.4937,8.14452 5.69729,16.72924 6.65555,25.9286 0.43873,4.21174 0.18703,14.73732 -0.45907,19.19744 -2.20694,15.23512 -8.53924,29.57756 -18.57328,42.06777 -2.66146,3.31295 -11.16081,11.46723 -15.05967,14.44825 -4.82388,3.68827 -9.91119,6.74617 -16.08906,9.67087 -3.21713,1.52304 -7.56025,3.35549 -9.65137,4.0721 -11.05916,3.78992 -23.78039,5.56543 -35.68084,4.97998 z m 12.73693,-2.63055 c 26.44934,-2.01453 50.88884,-15.90727 65.8697,-37.44394 12.02621,-17.28904 16.89078,-38.14711 13.8075,-59.20309 -1.36766,-9.3398 -5.01583,-19.82293 -9.77771,-28.09658 -6.4035,-11.12592 -15.93405,-21.36656 -26.48299,-28.45614 -11.18317,-7.51585 -23.05675,-12.28082 -35.59189,-14.28335 -23.20805,-3.70755 -45.13334,0.68931 -64.33705,12.90203 -13.032724,8.28824 -23.320395,19.54202 -30.223381,33.06167 -6.169627,12.08334 -8.920302,23.62907 -8.912021,37.40746 0.01168,19.45108 6.188134,36.65387 18.730775,52.16946 2.674197,3.30806 9.634521,10.15134 13.086219,12.86618 10.559688,8.30541 22.809408,14.1712 35.739468,17.11389 3.39763,0.77324 10.40448,1.85121 13.45342,2.06973 3.152,0.22591 11.02035,0.16821 14.63796,-0.10732 z"
       id="path4015"
       inkscape:connector-curvature="0" />
    <path
       style="opacity:1;fill:#000000;fill-opacity:1;fill-rule:nonzero;stroke:none;stroke-width:0.66499996;stroke-linecap:butt;stroke-linejoin:miter;stroke-miterlimit:4;stroke-dasharray:none;stroke-dashoffset:0;stroke-opacity:1;paint-order:stroke fill markers"
       d="m 83.048132,207.20114 c -1.20642,-0.2918 -3.548969,-0.76776 -5.205658,-1.05771 -1.65669,-0.28993 -3.083176,-0.59523 -3.169977,-0.67843 -0.0868,-0.0832 -0.283457,-0.68734 -0.437015,-1.34249 -0.209691,-0.89465 -0.185019,-1.28033 0.09909,-1.54924 0.208052,-0.19691 2.418234,-1.42178 4.911505,-2.7219 4.933574,-2.57264 4.678014,-2.55218 5.088153,-0.40733 0.187892,0.98258 0.143742,1.06606 -0.762682,1.44199 -1.941448,0.8052 -2.023017,0.95154 -1.662377,2.98218 0.178936,1.00752 0.530928,1.97908 0.787208,2.17284 0.25495,0.19275 1.030637,0.35045 1.723741,0.35045 1.149236,0 1.260202,0.0617 1.260202,0.70092 0,0.3855 -0.09871,0.68705 -0.219353,0.67009 -0.120642,-0.017 -1.20642,-0.26957 -2.41284,-0.56137 z M 80.916229,204.395 c -0.08891,-0.63548 -0.294956,-1.28319 -0.457874,-1.43937 -0.370662,-0.35533 -3.405771,1.2261 -3.405771,1.77455 0,0.45672 1.032878,0.75497 2.74382,0.79228 l 1.281487,0.028 z"
       id="path4019"
       inkscape:connector-curvature="0" />
    <path
       style="opacity:1;fill:#000000;fill-opacity:1;fill-rule:nonzero;stroke:none;stroke-width:0.66499996;stroke-linecap:butt;stroke-linejoin:miter;stroke-miterlimit:4;stroke-dasharray:none;stroke-dashoffset:0;stroke-opacity:1;paint-order:stroke fill markers"
       d="m 73.469875,195.59881 c -0.618954,-0.42679 -0.658049,-0.65169 -0.658049,-3.78569 0,-2.14224 0.116109,-3.40073 0.325167,-3.52459 0.5597,-0.33161 0.835575,0.50786 0.840218,2.55668 0.0044,1.93014 0.293714,2.64946 1.065713,2.64946 0.877881,0 1.278497,-0.87982 1.278497,-2.80778 0,-2.51887 0.368502,-2.79954 3.675563,-2.79954 3.227864,0 3.276041,0.0615 3.395823,4.33736 0.08444,3.01389 0.04188,3.36617 -0.417795,3.45503 -0.435971,0.0843 -0.512288,-0.12218 -0.515028,-1.3935 -0.0015,-0.82087 -0.0848,-1.9656 -0.184505,-2.54386 -0.166305,-0.96454 -0.26007,-1.05137 -1.135349,-1.05137 -1.152653,0 -1.307622,0.30866 -1.313603,2.61632 -0.0022,0.95115 -0.129187,1.9186 -0.281613,2.14991 -0.423863,0.64319 -5.186564,0.75419 -6.075039,0.14157 z"
       id="path4021"
       inkscape:connector-curvature="0" />
    <path
       style="opacity:1;fill:#000000;fill-opacity:1;fill-rule:nonzero;stroke:none;stroke-width:0.66499996;stroke-linecap:butt;stroke-linejoin:miter;stroke-miterlimit:4;stroke-dasharray:none;stroke-dashoffset:0;stroke-opacity:1;paint-order:stroke fill markers"
       d="m 76.175189,184.9707 c -3.312014,-0.63876 -3.629003,-1.10989 -3.096349,-4.60202 0.748025,-4.90413 0.941647,-5.07833 5.061359,-4.55394 6.256692,0.79641 6.360509,0.89487 5.683539,5.39063 -0.603114,4.0053 -0.747202,4.16739 -3.672477,4.13122 -1.221702,-0.0151 -3.010936,-0.17976 -3.976072,-0.36589 z m 5.986026,-2.53949 c 0.603915,-0.69757 0.719928,-2.50598 0.187921,-2.92924 -0.256956,-0.20444 -1.995737,-0.57299 -3.863946,-0.819 -3.289855,-0.43323 -3.409571,-0.43051 -3.803899,0.0865 -0.508929,0.66722 -0.531802,2.50167 -0.03608,2.89605 0.20407,0.16236 1.224047,0.42805 2.266608,0.59044 4.150137,0.64641 4.822132,0.66885 5.249413,0.1753 z"
       id="path4025"
       inkscape:connector-curvature="0" />
    <path
       style="opacity:1;fill:#000000;fill-opacity:1;fill-rule:nonzero;stroke:none;stroke-width:0.66499996;stroke-linecap:butt;stroke-linejoin:miter;stroke-miterlimit:4;stroke-dasharray:none;stroke-dashoffset:0;stroke-opacity:1;paint-order:stroke fill markers"
       d="m 79.538544,173.34597 c -1.528134,-0.42309 -3.072992,-0.92369 -3.433022,-1.11246 -0.939377,-0.49251 -1.108717,-1.56268 -0.580691,-3.66982 0.684876,-2.73304 0.999698,-3.38598 1.632599,-3.38598 0.546694,0 0.546225,0.037 -0.02308,1.8249 -0.319584,1.0037 -0.508836,2.00535 -0.420551,2.22589 0.175438,0.43828 4.253815,1.7664 6.215929,2.02422 1.068688,0.14042 1.28641,0.0751 1.677776,-0.50363 0.247354,-0.36574 0.605539,-1.26425 0.795973,-1.99671 0.324514,-1.24814 0.881311,-1.70148 1.297298,-1.05624 0.09769,0.15153 -0.228616,1.53749 -0.725145,3.07993 -1.224723,3.80459 -1.533027,3.92768 -6.437126,2.5699 z"
       id="path4027"
       inkscape:connector-curvature="0" />
    <path
       style="opacity:1;fill:#000000;fill-opacity:1;fill-rule:nonzero;stroke:none;stroke-width:0.66499996;stroke-linecap:butt;stroke-linejoin:miter;stroke-miterlimit:4;stroke-dasharray:none;stroke-dashoffset:0;stroke-opacity:1;paint-order:stroke fill markers"
       d="m 85.86261,165.03926 c -0.784452,-0.36021 -2.920859,-1.20187 -4.747579,-1.87034 -1.826719,-0.66849 -3.323555,-1.33736 -3.326296,-1.48642 -0.0029,-0.14904 0.208244,-0.80622 0.468866,-1.46041 l 0.473855,-1.18944 1.061591,0.50674 c 0.583871,0.27871 2.706715,1.11786 4.717411,1.86477 2.010702,0.74692 3.759159,1.43915 3.885451,1.53828 0.196951,0.15461 -0.792123,2.83516 -1.023517,2.77389 -0.04593,-0.0122 -0.725329,-0.31684 -1.509782,-0.67707 z"
       id="path4029"
       inkscape:connector-curvature="0" />
    <path
       style="opacity:1;fill:#000000;fill-opacity:1;fill-rule:nonzero;stroke:none;stroke-width:0.66499996;stroke-linecap:butt;stroke-linejoin:miter;stroke-miterlimit:4;stroke-dasharray:none;stroke-dashoffset:0;stroke-opacity:1;paint-order:stroke fill markers"
       d="m 87.525964,159.75668 c -0.673891,-0.80815 -2.286107,-2.55632 -3.582708,-3.88482 -1.2966,-1.32851 -2.357449,-2.55882 -2.357449,-2.73403 0,-0.17521 0.273803,-0.83305 0.608449,-1.46188 0.580433,-1.09068 0.657859,-1.13556 1.681678,-0.97485 0.590271,0.0926 3.047371,0.43892 5.460211,0.76948 2.41284,0.33055 4.425908,0.63284 4.473483,0.67174 0.04761,0.0389 -0.210609,0.657 -0.573741,1.37351 l -0.660248,1.30275 -1.690662,-0.18337 -1.690671,-0.18335 -0.927841,1.90071 -0.927834,1.90072 1.17382,1.04963 c 0.88957,0.79544 1.110207,1.1586 0.911112,1.49965 -0.385629,0.66056 -0.550376,0.56977 -1.897599,-1.04589 z m -0.380103,-3.62078 c 1.090311,-1.71425 0.869952,-1.97269 -1.977353,-2.31904 -1.066007,-0.12968 -1.535446,-0.0894 -1.535446,0.13191 0,0.28849 2.559925,3.09833 2.822744,3.09833 0.06076,0 0.371309,-0.41004 0.690055,-0.9112 z"
       id="path4031"
       inkscape:connector-curvature="0" />
    <path
       style="opacity:1;fill:#000000;fill-opacity:1;fill-rule:nonzero;stroke:none;stroke-width:0.66499996;stroke-linecap:butt;stroke-linejoin:miter;stroke-miterlimit:4;stroke-dasharray:none;stroke-dashoffset:0;stroke-opacity:1;paint-order:stroke fill markers"
       d="m 90.931617,148.14547 c -3.124364,-2.17731 -3.945147,-3.08013 -3.689169,-4.05785 0.290885,-1.11102 3.155986,-4.70358 3.751151,-4.70358 0.751925,0 0.69209,0.18293 -0.667734,2.04129 l -1.203775,1.64511 0.83819,0.84353 c 1.000447,1.00681 4.9684,3.60068 5.508116,3.60068 0.39271,0 2.191305,-1.77165 2.722704,-2.68192 0.253552,-0.43433 0.374122,-0.45771 0.763388,-0.14801 0.413774,0.32919 0.363058,0.50074 -0.483515,1.63518 -0.520181,0.69708 -1.450504,1.81881 -2.067388,2.49274 -1.575905,1.72162 -2.143453,1.65242 -5.471968,-0.66717 z"
       id="path4033"
       inkscape:connector-curvature="0" />
    <path
       style="opacity:1;fill:#000000;fill-opacity:1;fill-rule:nonzero;stroke:none;stroke-width:0.66499996;stroke-linecap:butt;stroke-linejoin:miter;stroke-miterlimit:4;stroke-dasharray:none;stroke-dashoffset:0;stroke-opacity:1;paint-order:stroke fill markers"
       d="m 98.11012,140.97811 c -1.447706,-1.26379 -3.224435,-2.76573 -3.948287,-3.33763 l -1.3161,-1.03982 1.070306,-1.03148 1.070297,-1.0315 2.590761,2.21291 c 1.424921,1.2171 3.218543,2.71755 3.985823,3.33437 l 1.39506,1.12146 -0.90978,1.05137 c -0.50037,0.57826 -0.9989,1.04389 -1.10784,1.03476 -0.10892,-0.009 -1.382538,-1.05063 -2.83024,-2.31444 z"
       id="path4035"
       inkscape:connector-curvature="0" />
    <path
       style="opacity:1;fill:#000000;fill-opacity:1;fill-rule:nonzero;stroke:none;stroke-width:0.66499996;stroke-linecap:butt;stroke-linejoin:miter;stroke-miterlimit:4;stroke-dasharray:none;stroke-dashoffset:0;stroke-opacity:1;paint-order:stroke fill markers"
       d="m 103.57004,138.34965 c -0.64757,-0.24782 -4.952798,-5.39488 -5.153402,-6.16108 -0.11483,-0.43858 -0.01801,-0.96135 0.250881,-1.35477 0.767053,-1.12223 5.212451,-4.3466 5.992611,-4.3466 1.23454,0 6.17225,5.47211 6.17225,6.84027 0,0.6618 -1.86189,2.5287 -4.19004,4.20132 -1.32441,0.9515 -2.15269,1.1728 -3.0723,0.82086 z m 3.88075,-2.87249 c 0.60778,-0.60814 0.77677,-0.997 0.64762,-1.49027 -0.23267,-0.88868 -3.807,-4.88209 -4.58035,-5.11739 -0.76312,-0.23219 -2.62952,1.05416 -2.62952,1.81229 0,0.9944 4.25061,5.61822 5.16475,5.61822 0.31632,0 0.9452,-0.37028 1.3975,-0.82285 z"
       id="path4037"
       inkscape:connector-curvature="0" />
    <path
       style="opacity:1;fill:#000000;fill-opacity:1;fill-rule:nonzero;stroke:none;stroke-width:0.66499996;stroke-linecap:butt;stroke-linejoin:miter;stroke-miterlimit:4;stroke-dasharray:none;stroke-dashoffset:0;stroke-opacity:1;paint-order:stroke fill markers"
       d="m 99.436505,127.06637 c -0.301466,-0.53999 -0.413305,-1.42026 -0.180441,-1.42026 0.0673,0 0.313691,-0.0704 0.547589,-0.15644 0.291357,-0.10718 0.473607,0.0859 0.578727,0.61304 0.27542,1.3811 -0.35453,2.02289 -0.945875,0.96366 z"
       id="path4039"
       inkscape:connector-curvature="0" />
    <path
       style="opacity:1;fill:#000000;fill-opacity:1;fill-rule:nonzero;stroke:none;stroke-width:0.66499996;stroke-linecap:butt;stroke-linejoin:miter;stroke-miterlimit:4;stroke-dasharray:none;stroke-dashoffset:0;stroke-opacity:1;paint-order:stroke fill markers"
       d="m 112.46381,130.62232 c -0.47,-0.8094 -1.68739,-2.7075 -2.70531,-4.21799 -1.01793,-1.5105 -1.85078,-2.79455 -1.85078,-2.85345 0,-0.0589 0.78734,-0.5656 1.74965,-1.12598 l 1.74964,-1.01889 3.6887,2.5406 c 3.23721,2.22964 4.51064,2.90597 4.51064,2.39564 0,-0.18974 -2.49238,-4.15139 -3.5565,-5.65306 -0.933,-1.31665 -1.00888,-1.64625 -0.42818,-1.85986 0.24219,-0.0891 0.54379,0.15003 0.75781,0.60082 0.19552,0.41185 1.39963,2.36445 2.67578,4.33911 1.27614,1.97466 2.26282,3.67788 2.19263,3.78495 -0.0702,0.10705 -0.84022,0.56258 -1.71117,1.01227 l -1.58354,0.81762 -4.06486,-2.73125 c -2.23568,-1.50218 -4.11454,-2.58837 -4.17526,-2.41375 -0.11,0.31636 2.48524,4.61827 3.87725,6.42696 0.40272,0.52328 0.66302,1.05876 0.57845,1.18994 -0.35316,0.5478 -0.90045,0.15179 -1.70495,-1.23368 z"
       id="path4041"
       inkscape:connector-curvature="0" />
    <path
       style="opacity:1;fill:#000000;fill-opacity:1;fill-rule:nonzero;stroke:none;stroke-width:0.66499996;stroke-linecap:butt;stroke-linejoin:miter;stroke-miterlimit:4;stroke-dasharray:none;stroke-dashoffset:0;stroke-opacity:1;paint-order:stroke fill markers"
       d="m 125.7426,122.21163 c -0.52963,-1.42636 -1.38914,-3.56711 -1.90998,-4.75722 l -0.94703,-2.16383 1.65062,-0.60175 c 5.75283,-2.09721 6.40569,-2.22812 7.15467,-1.43475 0.5505,0.58313 2.06994,4.0141 2.70479,6.10757 0.53023,1.7485 0.36211,2.23268 -1.00795,2.90271 -1.20224,0.58797 -6.18764,2.54065 -6.48653,2.54065 -0.1076,0 -0.62895,-1.16703 -1.15859,-2.59338 z m 5.2979,-0.13054 c 0.49979,-0.28301 0.84726,-0.71578 0.8442,-1.05138 -0.003,-0.31371 -0.56221,-1.8951 -1.24298,-3.51421 -1.36466,-3.24565 -1.71307,-3.51524 -3.43785,-2.66021 -1.09337,0.542 -1.09869,0.50106 0.61914,4.7644 1.29526,3.21463 1.54711,3.4073 3.21749,2.4614 z"
       id="path4043"
       inkscape:connector-curvature="0" />
    <path
       style="opacity:1;fill:#000000;fill-opacity:1;fill-rule:nonzero;stroke:none;stroke-width:0.66499996;stroke-linecap:butt;stroke-linejoin:miter;stroke-miterlimit:4;stroke-dasharray:none;stroke-dashoffset:0;stroke-opacity:1;paint-order:stroke fill markers"
       d="m 137.57358,120.10888 c -0.1057,-0.57826 -0.58263,-2.79726 -1.05985,-4.93112 -0.47723,-2.13386 -0.82445,-3.92067 -0.77161,-3.9707 0.22061,-0.20885 6.95484,-1.46196 7.10143,-1.32143 0.4808,0.46091 -0.0112,0.88227 -1.37538,1.17796 -0.84449,0.18305 -1.76576,0.39339 -2.04726,0.46741 -0.59478,0.15642 -0.65984,1.00791 -0.17823,2.33229 0.33302,0.91578 0.33607,0.91698 1.8279,0.71748 2.43488,-0.3256 2.64094,-0.31307 2.74273,0.16678 0.0761,0.35882 -0.3131,0.53041 -1.82242,0.80341 -1.05556,0.19093 -1.98212,0.44474 -2.05903,0.56403 -0.20174,0.31293 0.32161,2.80141 0.65673,3.12267 0.18258,0.17502 0.97995,0.11655 2.24464,-0.16463 2.47025,-0.54918 2.51011,-0.54752 2.51011,0.10479 0,0.43411 -0.33187,0.60451 -1.68168,0.86344 -0.92492,0.17742 -2.51241,0.50178 -3.52773,0.72078 -2.4379,0.52587 -2.34031,0.55077 -2.56035,-0.65316 z"
       id="path4045"
       inkscape:connector-curvature="0" />
    <path
       style="opacity:1;fill:#000000;fill-opacity:1;fill-rule:nonzero;stroke:none;stroke-width:0.66499996;stroke-linecap:butt;stroke-linejoin:miter;stroke-miterlimit:4;stroke-dasharray:none;stroke-dashoffset:0;stroke-opacity:1;paint-order:stroke fill markers"
       d="m 150.60772,118.63695 c 0,-0.51934 0.19498,-0.56072 2.64137,-0.56072 2.86181,0 3.15653,-0.16265 2.79522,-1.54264 -0.17606,-0.67249 -0.27459,-0.70029 -2.48169,-0.70029 -2.9208,0 -3.0693,-0.15499 -3.20075,-3.34053 -0.12995,-3.14891 0.008,-3.2777 3.80278,-3.54371 3.10488,-0.21768 4.33966,-0.0523 4.33966,0.58135 0,0.31358 -0.37582,0.41596 -1.53545,0.41829 -0.8445,0.002 -2.02899,0.0812 -2.63219,0.17687 -1.00356,0.15901 -1.09675,0.25072 -1.09675,1.07932 0,0.88304 0.0381,0.90994 1.53544,1.08235 0.8445,0.0972 1.95855,0.17789 2.47567,0.17923 1.28035,0.003 1.54574,0.59954 1.54574,3.47268 0,3.18022 -0.11403,3.25854 -4.74454,3.25854 -3.24953,0 -3.44451,-0.0318 -3.44451,-0.56074 z"
       id="path4047"
       inkscape:connector-curvature="0" />
    <path
       style="opacity:1;fill:#000000;fill-opacity:1;fill-rule:nonzero;stroke:none;stroke-width:0.66499996;stroke-linecap:butt;stroke-linejoin:miter;stroke-miterlimit:4;stroke-dasharray:none;stroke-dashoffset:0;stroke-opacity:1;paint-order:stroke fill markers"
       d="m 166.25466,119.73439 c -5.3506,-0.60544 -5.40366,-0.6709 -4.72917,-5.83428 0.66775,-5.11193 0.81369,-5.19844 7.06888,-4.19076 2.32852,0.37511 2.77992,0.79722 2.77264,2.59274 -0.007,1.71766 -0.47692,5.02042 -0.88554,6.22347 -0.25783,0.75912 -1.3619,1.58515 -1.97397,1.47685 -0.11307,-0.02 -1.12686,-0.14061 -2.25284,-0.26802 z m 1.23671,-1.44788 c 0.38255,-0.4709 0.95677,-4.01727 0.95677,-5.909 0,-1.6923 -0.21324,-1.85955 -2.38113,-1.86733 -1.25706,-0.005 -1.22731,-0.0776 -1.75352,4.30579 -0.34641,2.88577 -0.33656,3.06856 0.18548,3.43449 0.68811,0.48232 2.61102,0.50549 2.9924,0.036 z"
       id="path4049"
       inkscape:connector-curvature="0" />
    <path
       style="opacity:1;fill:#000000;fill-opacity:1;fill-rule:nonzero;stroke:none;stroke-width:0.66499996;stroke-linecap:butt;stroke-linejoin:miter;stroke-miterlimit:4;stroke-dasharray:none;stroke-dashoffset:0;stroke-opacity:1;paint-order:stroke fill markers"
       d="m 180.46735,122.98071 c -1.59819,-0.47766 -1.77184,-0.73697 -1.78241,-2.66155 -0.0113,-2.05469 -0.23568,-2.74846 -0.9603,-2.96892 -0.81816,-0.24893 -1.2171,0.34081 -1.6776,2.47996 -0.20727,0.96283 -0.4001,1.78171 -0.42855,1.81975 -0.0285,0.0381 -0.71017,-0.11832 -1.51498,-0.34745 l -1.4633,-0.41657 0.95243,-3.17627 c 0.52381,-1.74695 1.12043,-3.95619 1.32583,-4.90943 0.20538,-0.95324 0.48842,-1.73315 0.62895,-1.73315 0.60348,0 7.69025,2.02617 8.02878,2.29549 0.86354,0.68703 -0.0527,4.41682 -1.27347,5.18357 -0.72674,0.45647 -0.74042,0.52365 -0.54292,2.66267 0.11146,1.2069 0.15605,2.18593 0.0991,2.17561 -0.057,-0.0103 -0.68315,-0.19198 -1.39155,-0.40371 z m 0.2716,-7.02548 c 0.15687,-0.39554 0.28523,-1.0771 0.28523,-1.51458 0,-0.64011 -0.17985,-0.85552 -0.92105,-1.10322 -1.77596,-0.59349 -2.19299,-0.43587 -2.56181,0.96824 -0.37003,1.40869 -0.26813,1.73077 0.66124,2.09024 1.27219,0.49206 2.23264,0.3252 2.53639,-0.44068 z"
       id="path4051"
       inkscape:connector-curvature="0" />
    <path
       style="opacity:1;fill:#000000;fill-opacity:1;fill-rule:nonzero;stroke:none;stroke-width:0.66499996;stroke-linecap:butt;stroke-linejoin:miter;stroke-miterlimit:4;stroke-dasharray:none;stroke-dashoffset:0;stroke-opacity:1;paint-order:stroke fill markers"
       d="m 187.47615,125.77002 c -1.84009,-0.84616 -3.38169,-1.57305 -3.42576,-1.6153 -0.0441,-0.0422 0.49519,-1.14333 1.19838,-2.44684 0.70318,-1.3035 1.70975,-3.31624 2.23683,-4.47275 0.52707,-1.15651 0.99098,-2.14686 1.0309,-2.20078 0.21181,-0.28607 6.88036,3.12287 7.29466,3.72902 0.566,0.82805 0.33903,1.6893 -1.25962,4.77999 -1.37357,2.65551 -2.29885,3.78717 -3.0866,3.77504 -0.35373,-0.006 -2.14868,-0.70222 -3.98879,-1.54838 z m 4.55558,-3.60813 c 1.52716,-2.99563 1.58982,-3.63533 0.41313,-4.21864 -1.51407,-0.75056 -1.69445,-0.60686 -3.38629,2.69775 -0.88008,1.71904 -1.60014,3.29308 -1.60014,3.49788 0,0.2048 0.49353,0.61658 1.09674,0.91506 1.02507,0.50723 1.13281,0.51225 1.64864,0.0768 0.30354,-0.25625 1.12612,-1.59223 1.82792,-2.96885 z"
       id="path4053"
       inkscape:connector-curvature="0" />
    <path
       style="opacity:1;fill:#000000;fill-opacity:1;fill-rule:nonzero;stroke:none;stroke-width:0.66499996;stroke-linecap:butt;stroke-linejoin:miter;stroke-miterlimit:4;stroke-dasharray:none;stroke-dashoffset:0;stroke-opacity:1;paint-order:stroke fill markers"
       d="m 200.91185,133.57181 c -0.78081,-0.2859 -3.92151,-2.37156 -4.8988,-3.25314 -0.60228,-0.54329 -0.95052,-1.12619 -0.95052,-1.59097 0,-0.79313 3.02348,-5.30974 4.26812,-6.37589 1.07474,-0.92063 1.84014,-0.7891 4.24898,0.73018 2.64369,1.66741 3.76758,2.6595 3.76295,3.32174 -0.004,0.6652 -1.14992,2.55929 -2.97259,4.91622 -1.77943,2.30101 -2.33534,2.66301 -3.45814,2.25186 z m 1.05459,-3.79031 c 0.7402,-0.96375 1.67493,-2.29051 2.0772,-2.94835 0.67609,-1.10567 0.69761,-1.24545 0.28477,-1.84946 -0.24562,-0.35937 -0.85498,-0.81556 -1.35411,-1.01375 -0.79448,-0.31547 -0.98056,-0.29699 -1.49394,0.1484 -1.01771,0.88292 -3.78819,5.00593 -3.78689,5.63563 0.002,0.64881 1.52228,1.76688 2.41469,1.7751 0.29332,0.003 1.08788,-0.74451 1.85828,-1.74757 z"
       id="path4055"
       inkscape:connector-curvature="0" />
    <path
       style="opacity:1;fill:#000000;fill-opacity:1;fill-rule:nonzero;stroke:none;stroke-width:0.66499996;stroke-linecap:butt;stroke-linejoin:miter;stroke-miterlimit:4;stroke-dasharray:none;stroke-dashoffset:0;stroke-opacity:1;paint-order:stroke fill markers"
       d="m 206.20095,138.19248 c -2.20944,-1.96384 -2.54262,-2.37265 -2.20708,-2.70804 0.33712,-0.33696 0.65792,-0.16185 2.18284,1.19156 0.98322,0.87262 1.91176,1.58657 2.06345,1.58657 0.15169,0 0.54204,-0.25521 0.86744,-0.56716 0.72306,-0.69313 0.55502,-1.05307 -1.30032,-2.7855 -0.74006,-0.69106 -1.33859,-1.50983 -1.33859,-1.83118 0,-0.60657 2.2965,-3.10001 3.62191,-3.93253 0.74179,-0.46592 0.79734,-0.45888 1.71634,0.21752 0.52238,0.38447 1.80523,1.46029 2.85079,2.39073 1.51252,1.34596 1.82793,1.76406 1.54327,2.04574 -0.28601,0.28305 -0.70654,0.0632 -2.09728,-1.09637 -1.79613,-1.49758 -2.29629,-1.6899 -2.89709,-1.11395 -0.62129,0.59559 -0.38162,1.20084 1.11138,2.80664 0.80428,0.86505 1.46233,1.76677 1.46233,2.00383 0,0.70757 -3.57699,4.10517 -4.32191,4.10517 -0.41535,0 -1.60772,-0.84666 -3.25748,-2.31303 z"
       id="path4057"
       inkscape:connector-curvature="0" />
    <path
       style="opacity:1;fill:#000000;fill-opacity:1;fill-rule:nonzero;stroke:none;stroke-width:0.66499996;stroke-linecap:butt;stroke-linejoin:miter;stroke-miterlimit:4;stroke-dasharray:none;stroke-dashoffset:0;stroke-opacity:1;paint-order:stroke fill markers"
       d="m 216.55877,146.95392 c 0.0994,-0.1542 0.2388,-0.28036 0.30973,-0.28036 0.0709,0 0.12896,0.12616 0.12896,0.28036 0,0.15421 -0.13938,0.28037 -0.30973,0.28037 -0.17035,0 -0.22838,-0.12616 -0.12896,-0.28037 z"
       id="path4059"
       inkscape:connector-curvature="0" />
    <path
       style="opacity:1;fill:#000000;fill-opacity:1;fill-rule:nonzero;stroke:none;stroke-width:0.66499996;stroke-linecap:butt;stroke-linejoin:miter;stroke-miterlimit:4;stroke-dasharray:none;stroke-dashoffset:0;stroke-opacity:1;paint-order:stroke fill markers"
       d="m 217.62662,151.196 c -0.42646,-0.44248 -1.59598,-1.88861 -2.59894,-3.21362 l -1.82355,-2.40911 1.38486,-0.90426 c 0.76166,-0.49734 2.68978,-1.84724 4.28471,-2.99977 l 2.89987,-2.09549 0.69282,0.81634 c 1.84076,2.16891 3.89238,5.36231 3.89124,6.05681 0,0.58745 -0.3738,1.02909 -1.68294,1.99364 -3.13197,2.30756 -5.13983,3.55997 -5.70735,3.55997 -0.31093,0 -0.91427,-0.36202 -1.34072,-0.80451 z m 3.1729,-3.33847 c 3.51636,-2.34973 3.86101,-2.9584 2.52088,-4.45195 l -0.69625,-0.77596 -1.27791,0.79529 c -2.22628,1.38551 -5.22617,3.62873 -5.22617,3.90797 0,0.14797 0.33986,0.69618 0.75526,1.21825 0.91745,1.15309 1.24805,1.09465 3.92419,-0.6936 z"
       id="path4063"
       inkscape:connector-curvature="0" />
    <path
       style="opacity:1;fill:#000000;fill-opacity:1;fill-rule:nonzero;stroke:none;stroke-width:0.66499996;stroke-linecap:butt;stroke-linejoin:miter;stroke-miterlimit:4;stroke-dasharray:none;stroke-dashoffset:0;stroke-opacity:1;paint-order:stroke fill markers"
       d="m 222.91578,160.62177 c -0.1623,-0.19276 -0.95657,-1.61938 -1.76504,-3.17029 l -1.46996,-2.81983 4.79862,-2.29504 4.79864,-2.29505 1.6333,3.12199 c 1.27181,2.431 1.54725,3.17428 1.24448,3.35829 -0.53814,0.32704 -0.82754,0.30206 -0.82754,-0.0714 0,-0.17398 -0.40343,-0.9923 -0.89652,-1.81848 l -0.89654,-1.50214 -1.07761,0.42979 c -1.99181,0.7944 -2.07847,1.04034 -1.03779,2.94484 0.85998,1.57378 0.88404,1.69561 0.38524,1.95151 -0.41235,0.21156 -0.57001,0.15818 -0.70095,-0.23733 -0.0929,-0.28065 -0.56412,-1.1076 -1.0471,-1.83767 l -0.87815,-1.3274 -1.4585,0.76098 c -0.80219,0.41854 -1.4585,0.88303 -1.4585,1.0322 0,0.14917 0.3948,1.01604 0.87738,1.92639 0.48256,0.91034 0.8774,1.77756 0.8774,1.92715 0,0.38951 -0.75196,0.33591 -1.10086,-0.0785 z"
       id="path4065"
       inkscape:connector-curvature="0" />
    <path
       style="opacity:1;fill:#000000;fill-opacity:1;fill-rule:nonzero;stroke:none;stroke-width:0.66499996;stroke-linecap:butt;stroke-linejoin:miter;stroke-miterlimit:4;stroke-dasharray:none;stroke-dashoffset:0;stroke-opacity:1;paint-order:stroke fill markers"
       d="m 227.37665,172.64185 c -0.57506,-0.84134 -1.89768,-5.00769 -1.89768,-5.97782 0,-1.42802 0.78307,-0.54195 1.47391,1.6678 0.77008,2.46326 1.28275,2.90262 2.44014,2.09131 0.53026,-0.37169 0.53103,-0.44583 0.0259,-2.49955 -0.28627,-1.16406 -0.44713,-2.29977 -0.35746,-2.52379 0.19172,-0.47893 3.78109,-1.62392 5.09074,-1.62392 0.49854,0 1.04256,0.1577 1.20894,0.35045 0.16637,0.19276 0.73756,1.71387 1.2693,3.38025 0.82684,2.59123 0.90466,3.06746 0.53759,3.29001 -0.66572,0.40361 -0.86642,0.32159 -0.88578,-0.36202 -0.0312,-1.10394 -0.98976,-3.64407 -1.489,-3.94595 -0.35411,-0.21412 -0.67537,-0.16915 -1.21557,0.17016 l -0.73425,0.46121 0.53734,2.00259 c 0.29554,1.10143 0.47164,2.16674 0.39132,2.36735 -0.21197,0.52957 -2.83556,1.5425 -4.47823,1.72901 -1.29175,0.14666 -1.45649,0.0971 -1.91729,-0.57709 z"
       id="path4067"
       inkscape:connector-curvature="0" />
    <path
       style="opacity:1;fill:#000000;fill-opacity:1;fill-rule:nonzero;stroke:none;stroke-width:0.66499996;stroke-linecap:butt;stroke-linejoin:miter;stroke-miterlimit:4;stroke-dasharray:none;stroke-dashoffset:0;stroke-opacity:1;paint-order:stroke fill markers"
       d="m 229.51194,183.69562 c -0.56406,-0.42533 -0.80048,-0.98293 -1.06307,-2.5072 -0.55132,-3.20014 -0.45683,-4.70832 0.32574,-5.19987 0.63463,-0.39862 7.1316,-1.5586 8.7303,-1.5587 0.65799,-5e-5 0.79158,0.14821 0.94731,1.05131 0.0997,0.57825 0.18272,1.19078 0.18447,1.36116 0.002,0.17973 -0.82559,0.37922 -1.97089,0.47513 -3.61086,0.30243 -6.53668,0.82523 -6.97617,1.24654 -0.3189,0.30573 -0.38704,0.76163 -0.2564,1.71574 0.35389,2.5848 0.45306,2.83561 1.19128,3.01323 0.61007,0.14678 5.48776,-0.40927 8.11761,-0.9254 0.69638,-0.13667 0.81639,-0.079 0.73012,0.35046 -0.088,0.43793 -0.68764,0.58625 -4.0505,1.00194 -5.04795,0.62397 -5.05005,0.62396 -5.9098,-0.0243 z"
       id="path4069"
       inkscape:connector-curvature="0" />
    <path
       style="opacity:1;fill:#000000;fill-opacity:1;fill-rule:nonzero;stroke:none;stroke-width:0.66499996;stroke-linecap:butt;stroke-linejoin:miter;stroke-miterlimit:4;stroke-dasharray:none;stroke-dashoffset:0;stroke-opacity:1;paint-order:stroke fill markers"
       d="m 230.54579,195.51111 c -0.51082,-0.0474 -1.05302,-0.2367 -1.20493,-0.42054 -0.15189,-0.18384 -0.36557,-2.16364 -0.47487,-4.39956 l -0.19866,-4.0653 5.44638,0.0822 5.44635,0.0822 -0.0945,4.07638 c -0.10763,4.64341 -0.22304,4.87109 -2.46921,4.87109 -1.25693,0 -2.1585,-0.52842 -2.1585,-1.26513 0,-0.73903 -0.55098,-0.70148 -0.93351,0.0636 -0.41075,0.82157 -1.52594,1.14533 -3.35857,0.97503 z m 3.0637,-4.32945 0.0877,-1.61211 h -1.77858 c -2.05441,0 -2.22175,0.18481 -1.91909,2.11961 l 0.19893,1.27161 1.66165,-0.0836 1.66167,-0.0835 z m 4.73797,0.21561 c 0,-1.40637 -0.0622,-1.55163 -0.73309,-1.71305 -0.4032,-0.097 -1.19286,-0.0937 -1.7548,0.008 -0.99834,0.17955 -1.0217,0.21443 -1.0217,1.52614 0,0.73832 0.0878,1.42651 0.19497,1.52931 0.10725,0.1028 0.89691,0.18691 1.75481,0.18691 h 1.55981 z"
       id="path4071"
       inkscape:connector-curvature="0" />
    <path
       style="opacity:1;fill:#000000;fill-opacity:1;fill-rule:nonzero;stroke:none;stroke-width:0.66499996;stroke-linecap:butt;stroke-linejoin:miter;stroke-miterlimit:4;stroke-dasharray:none;stroke-dashoffset:0;stroke-opacity:1;paint-order:stroke fill markers"
       d="m 226.8067,206.00175 c 0.25965,-1.84628 0.26545,-1.85317 1.5583,-1.85317 1.59655,0 2.0469,-0.45864 2.4131,-2.45755 0.36948,-2.01679 0.20295,-2.36896 -1.37956,-2.91754 -0.74821,-0.25936 -0.99491,-0.50865 -0.99491,-1.00536 v -0.66048 l 1.10868,0.64671 c 9.39178,5.47844 8.79409,5.06416 8.61828,5.97367 -0.39274,2.03172 -0.33468,1.99579 -4.07651,2.52321 -1.90133,0.268 -4.35513,0.64383 -5.45291,0.83521 l -1.99595,0.34793 z m 8.70812,-3.02255 c 0.71736,-0.36707 0.3079,-0.79814 -1.55084,-1.63271 -1.70416,-0.76516 -1.93578,-0.65201 -2.22566,1.08733 l -0.20486,1.22909 1.72533,-0.20608 c 0.94893,-0.11334 1.96414,-0.32828 2.25603,-0.47763 z"
       id="path4073"
       inkscape:connector-curvature="0" />
    <path
       style="opacity:1;fill:#000000;fill-opacity:1;fill-rule:nonzero;stroke:none;stroke-width:0.66499996;stroke-linecap:butt;stroke-linejoin:miter;stroke-miterlimit:4;stroke-dasharray:none;stroke-dashoffset:0;stroke-opacity:1;paint-order:stroke fill markers"
       d="m 184.1417,258.7689 c -1.077,-2.18689 -1.85711,-4.06835 -1.73357,-4.18104 0.62546,-0.57053 6.33671,-2.77939 6.81231,-2.63469 0.29623,0.0901 0.82616,0.73333 1.17765,1.42934 l 0.63904,1.26546 -0.65086,0.66415 -0.65088,0.66414 0.97467,0.0901 c 0.78856,0.0729 1.10077,0.30423 1.63511,1.21156 1.17973,2.00313 1.05707,2.19239 -2.54215,3.92279 -1.76673,0.84939 -3.32271,1.54436 -3.45771,1.54436 -0.135,0 -1.12664,-1.78928 -2.20361,-3.97617 z m 5.59138,1.57716 c 0.76969,-0.51682 0.85718,-1.67851 0.19472,-2.5852 -0.53626,-0.73393 -1.01832,-0.77691 -2.19144,-0.19537 -1.01049,0.50093 -1.07783,1.0532 -0.28114,2.30582 0.63797,1.00306 1.28894,1.13874 2.27786,0.47475 z m -2.05532,-3.76598 c 1.06509,-0.62252 1.23242,-1.45506 0.49524,-2.46397 -0.53907,-0.7378 -1.01785,-0.77715 -2.21782,-0.18229 -0.75719,0.37536 -0.86069,0.55235 -0.69683,1.19155 0.22008,0.85861 0.94105,2.01288 1.2563,2.01133 0.11693,-5.1e-4 0.64034,-0.25105 1.16311,-0.55662 z"
       id="path4075"
       inkscape:connector-curvature="0" />
    <path
       style="opacity:1;fill:#000000;fill-opacity:1;fill-rule:nonzero;stroke:none;stroke-width:0.66499996;stroke-linecap:butt;stroke-linejoin:miter;stroke-miterlimit:4;stroke-dasharray:none;stroke-dashoffset:0;stroke-opacity:1;paint-order:stroke fill markers"
       d="m 175.08554,265.51756 c -0.60823,-0.33919 -0.81948,-0.81146 -1.99263,-4.4547 -0.47172,-1.46491 -0.92441,-2.87048 -1.006,-3.12349 -0.10501,-0.32569 0.12342,-0.55082 0.78229,-0.771 1.45625,-0.48665 1.62896,-0.39815 1.99221,1.02074 0.95214,3.71935 1.80025,5.92744 2.33972,6.09158 0.4772,0.1452 2.42364,-0.36693 4.18863,-1.10208 0.89687,-0.37356 0.59216,0.63369 -0.33002,1.09084 -0.73025,0.36199 -4.86992,1.57488 -5.29408,1.55111 -0.0837,-0.005 -0.38972,-0.14103 -0.68012,-0.303 z"
       id="path4077"
       inkscape:connector-curvature="0" />
    <path
       style="opacity:1;fill:#000000;fill-opacity:1;fill-rule:nonzero;stroke:none;stroke-width:0.66499996;stroke-linecap:butt;stroke-linejoin:miter;stroke-miterlimit:4;stroke-dasharray:none;stroke-dashoffset:0;stroke-opacity:1;paint-order:stroke fill markers"
       d="m 164.06116,267.38381 c 0,-0.39578 0.32016,-0.48287 3.04565,-0.82848 1.43137,-0.18151 1.75944,-0.48858 1.51588,-1.4188 -0.18782,-0.71744 -0.24025,-0.73214 -2.3782,-0.66671 -1.26171,0.0386 -2.31873,-0.0602 -2.4997,-0.23369 -0.17246,-0.16533 -0.45102,-1.28665 -0.61901,-2.49183 -0.2876,-2.06328 -0.27018,-2.21862 0.29839,-2.65998 0.33212,-0.25779 1.43386,-0.55563 2.44834,-0.66184 1.01446,-0.1062 2.33801,-0.26561 2.94122,-0.35421 0.86024,-0.12636 1.09674,-0.0692 1.09674,0.26529 0,0.52128 -0.61015,0.76674 -1.9059,0.76674 -1.70438,0 -2.48107,0.43668 -2.48107,1.39489 v 0.84805 h 2.32943 c 2.7565,0 2.82894,0.0703 3.11554,3.02633 0.17962,1.8527 0.15226,1.98144 -0.50718,2.38669 -0.38338,0.2356 -1.88154,0.56459 -3.32924,0.73109 -3.26913,0.37597 -3.07089,0.38265 -3.07089,-0.10354 z"
       id="path4079"
       inkscape:connector-curvature="0" />
    <path
       style="opacity:1;fill:#000000;fill-opacity:1;fill-rule:nonzero;stroke:none;stroke-width:0.66499996;stroke-linecap:butt;stroke-linejoin:miter;stroke-miterlimit:4;stroke-dasharray:none;stroke-dashoffset:0;stroke-opacity:1;paint-order:stroke fill markers"
       d="m 181.51161,259.75449 c -0.10723,-0.1028 -0.19498,-0.31728 -0.19498,-0.47661 0,-0.17569 0.13623,-0.15914 0.34609,0.042 0.19035,0.18247 0.27809,0.39694 0.19498,0.47662 -0.0831,0.0797 -0.23884,0.0608 -0.34609,-0.042 z"
       id="path4081"
       inkscape:connector-curvature="0" />
    <path
       style="opacity:1;fill:#000000;fill-opacity:1;fill-rule:nonzero;stroke:none;stroke-width:0.66499996;stroke-linecap:butt;stroke-linejoin:miter;stroke-miterlimit:4;stroke-dasharray:none;stroke-dashoffset:0;stroke-opacity:1;paint-order:stroke fill markers"
       d="m 152.07006,264.16982 c 0,-2.3004 -0.0799,-4.38212 -0.17753,-4.62603 -0.15651,-0.39098 0.29245,-0.44349 3.79176,-0.44349 4.57334,0 4.42676,-0.0855 4.62872,2.70024 0.10401,1.4348 0.0373,1.7712 -0.40335,2.03502 -0.69506,0.41612 -0.66779,0.77955 0.19951,2.65956 l 0.72748,1.5769 h -1.43307 -1.43308 l -0.7823,-1.96257 c -0.73276,-1.83828 -0.83891,-1.96256 -1.67634,-1.96256 h -0.89404 l 0.16588,2.10274 0.1659,2.10275 h -1.43978 -1.43976 z m 5.73952,-1.88468 c 0.1066,-0.40716 0.0737,-1.06953 -0.073,-1.47192 -0.22156,-0.60759 -0.47343,-0.7461 -1.48554,-0.81697 -1.46274,-0.10241 -1.90997,0.44362 -1.64508,2.00848 0.17115,1.01095 0.18634,1.0207 1.59129,1.0207 1.28925,0 1.43614,-0.0674 1.6123,-0.74029 z"
       id="path4083"
       inkscape:connector-curvature="0" />
    <path
       style="opacity:1;fill:#000000;fill-opacity:1;fill-rule:nonzero;stroke:none;stroke-width:0.66499996;stroke-linecap:butt;stroke-linejoin:miter;stroke-miterlimit:4;stroke-dasharray:none;stroke-dashoffset:0;stroke-opacity:1;paint-order:stroke fill markers"
       d="m 143.58854,267.32937 c -2.00465,-0.28939 -2.86531,-0.6747 -3.04564,-1.36347 -0.24411,-0.93236 0.36419,-5.63837 0.88362,-6.83613 l 0.41279,-0.95181 2.89442,0.15289 c 1.59194,0.084 3.26871,0.32417 3.72616,0.53349 0.72556,0.33199 0.84375,0.55925 0.92582,1.78019 0.13209,1.96504 -0.49265,5.79011 -1.04139,6.37611 -0.35135,0.37521 -0.87882,0.48166 -2.24203,0.45246 -0.98042,-0.021 -2.11161,-0.0857 -2.51375,-0.14373 z m 2.43658,-1.07245 c 0.23711,-0.22729 0.50683,-1.01583 0.59939,-1.75228 0.63288,-5.03565 0.59196,-5.19841 -1.31687,-5.238 -1.09089,-0.0226 -1.31209,0.0752 -1.64292,0.72661 -0.21644,0.42613 -0.41108,1.93914 -0.44859,3.48698 -0.0655,2.69949 -0.0571,2.73676 0.66488,2.93414 1.17302,0.32074 1.68447,0.28318 2.14411,-0.15745 z"
       id="path4085"
       inkscape:connector-curvature="0" />
    <path
       style="opacity:1;fill:#000000;fill-opacity:1;fill-rule:nonzero;stroke:none;stroke-width:0.66499996;stroke-linecap:butt;stroke-linejoin:miter;stroke-miterlimit:4;stroke-dasharray:none;stroke-dashoffset:0;stroke-opacity:1;paint-order:stroke fill markers"
       d="m 132.6942,264.78878 c -1.96413,-0.55085 -2.55908,-0.83243 -2.55908,-1.21114 0,-0.46682 0.0959,-0.46478 1.78085,0.0379 2.38869,0.71269 2.85351,0.68152 3.20918,-0.21524 0.35911,-0.90544 0.23981,-1.02145 -1.65626,-1.61075 -2.58814,-0.80438 -2.64319,-0.88822 -2.063,-3.14204 0.29286,-1.13766 0.769,-2.19079 1.15996,-2.56556 l 0.66317,-0.63575 2.91315,0.79802 c 2.14183,0.58673 2.93964,0.92918 3.01315,1.29339 0.0815,0.40368 -0.0267,0.45653 -0.58492,0.28558 -3.50486,-1.07345 -4.34077,-1.0146 -4.34077,0.30562 0,0.52816 0.31893,0.75879 1.79786,1.30017 2.3649,0.86568 2.54969,1.18127 1.88977,3.22751 -0.69476,2.15429 -1.21537,2.89694 -2.01268,2.8711 -0.35822,-0.0116 -1.80289,-0.34408 -3.21038,-0.73883 z"
       id="path4087"
       inkscape:connector-curvature="0" />
    <path
       style="opacity:1;fill:#000000;fill-opacity:1;fill-rule:nonzero;stroke:none;stroke-width:0.66499996;stroke-linecap:butt;stroke-linejoin:miter;stroke-miterlimit:4;stroke-dasharray:none;stroke-dashoffset:0;stroke-opacity:1;paint-order:stroke fill markers"
       d="m 125.42411,262.46605 c -1.03134,-0.52253 -1.05207,-0.56581 -0.91685,-1.91485 l 0.13835,-1.38023 -1.67758,-0.73625 c -0.92266,-0.40493 -1.85908,-0.73624 -2.08092,-0.73624 -0.73167,0 -0.42932,-0.40818 2.06303,-2.78501 l 2.46641,-2.35208 1.34379,0.49196 c 1.27184,0.46562 1.33534,0.53935 1.18594,1.37699 -0.15146,0.8492 -1.02015,7.95106 -1.02563,8.38481 -0.004,0.31662 -0.3349,0.23943 -1.49654,-0.3491 z m -0.52223,-5.32977 c 0.29245,-1.00757 0.30367,-2.8022 0.0175,-2.8022 -0.38131,0 -2.68085,2.11977 -2.68085,2.47127 0,0.39372 1.46235,1.18034 2.03443,1.09436 0.23423,-0.0353 0.51724,-0.37875 0.62889,-0.76343 z"
       id="path4089"
       inkscape:connector-curvature="0" />
    <path
       style="opacity:1;fill:#000000;fill-opacity:1;fill-rule:nonzero;stroke:none;stroke-width:0.66499996;stroke-linecap:butt;stroke-linejoin:miter;stroke-miterlimit:4;stroke-dasharray:none;stroke-dashoffset:0;stroke-opacity:1;paint-order:stroke fill markers"
       d="m 118.50113,259.47562 c -0.22118,-0.0838 -0.40211,-0.18746 -0.40206,-0.23041 1e-4,-0.10448 2.29272,-2.11072 2.41201,-2.11072 0.0515,0 0.0518,0.12616 7.8e-4,0.28037 -0.0676,0.2042 -0.0263,0.28036 0.15213,0.28036 0.16582,0 -0.02,0.2743 -0.57508,0.84909 -0.45101,0.467 -0.82003,0.90857 -0.82003,0.98128 0,0.16399 -0.24498,0.14805 -0.76772,-0.05 z"
       id="path4091"
       inkscape:connector-curvature="0" />
    <path
       style="opacity:1;fill:#000000;fill-opacity:1;fill-rule:nonzero;stroke:none;stroke-width:0.66499996;stroke-linecap:butt;stroke-linejoin:miter;stroke-miterlimit:4;stroke-dasharray:none;stroke-dashoffset:0;stroke-opacity:1;paint-order:stroke fill markers"
       d="m 181.27195,262.76866 c 0,-0.40091 -0.72454,-3.192 -1.39725,-5.38561 -0.51404,-1.67627 -0.58887,-2.06946 -0.39445,-2.07286 0.0603,-9.6e-4 0.24943,-0.0379 0.42026,-0.0818 0.27556,-0.0709 0.32227,-0.005 0.41432,0.58319 0.0571,0.3647 0.45458,1.89973 0.88338,3.41117 0.42882,1.51143 0.82239,3.00732 0.8746,3.32417 0.0942,0.57133 0.0912,0.57599 -0.35279,0.56074 -0.36546,-0.0126 -0.44781,-0.0749 -0.44807,-0.33899 z"
       id="path4093"
       inkscape:connector-curvature="0" />
  </g>
</svg>
